<svg xmlns="http://www.w3.org/2000/svg" id="export" class="canvas" preserveAspectRatio="xMidYMid meet" style="" width="216" height="952"><rect id="background" fill="#fff" pointer-events="all" width="216" height="952"/><g id="origin" transform="translate(9.817187500000001, 9.817187500000001) scale(1)"><g id="clusters" class="clusters"/><g id="edge-paths" class="edge-paths"><defs><marker id="arrowhead" viewBox="0 0 10 10" refX="9" refY="5" markerUnits="strokeWidth" markerWidth="8" markerHeight="6" orient="auto" style="fill: rgb(0, 0, 0);"><path d="M 0 0 L 10 5 L 0 10 L 4 5 z" style="stroke-width: 1;"/></marker><marker id="arrowhead-select" viewBox="0 0 10 10" refX="9" refY="5" markerUnits="strokeWidth" markerWidth="8" markerHeight="6" orient="auto" style="fill: rgba(220, 0, 0, 0.9);"><path d="M 0 0 L 10 5 L 0 10 L 4 5 z" style="stroke-width: 1;"/></marker><marker id="arrowhead-hover" viewBox="0 0 10 10" refX="9" refY="5" markerUnits="strokeWidth" markerWidth="8" markerHeight="6" orient="auto" style="fill: rgba(220, 0, 0, 0.9);"><path d="M 0 0 L 10 5 L 0 10 L 4 5 z" style="stroke-width: 1;"/></marker></defs><path id="edge-input.1" class="edge-path" d="M40.7109375,113.5L40.7109375,116.75C40.7109375,120,40.7109375,126.5,40.7109375,134.75C40.7109375,143,40.7109375,153,40.7109375,163C40.7109375,173,40.7109375,183,40.7109375,189.66666666666666C40.7109375,196.33333333333334,40.7109375,199.66666666666666,40.7109375,201.33333333333334L40.7109375,203" style="stroke: rgb(0, 0, 0); stroke-width: 1px; fill: none; marker-end: url(&quot;#arrowhead&quot;);"/><path class="edge-path-hit-test" d="M40.7109375,113.5L40.7109375,116.75C40.7109375,120,40.7109375,126.5,40.7109375,134.75C40.7109375,143,40.7109375,153,40.7109375,163C40.7109375,173,40.7109375,183,40.7109375,189.66666666666666C40.7109375,196.33333333333334,40.7109375,199.66666666666666,40.7109375,201.33333333333334L40.7109375,203" style="pointer-events: stroke; stroke-width: 0.5em; fill: none; stroke: rgb(0, 0, 0); stroke-opacity: 0.001;"/><path id="edge-onnx::Unsqueeze_1" class="edge-path" d="M138.921875,21L138.921875,22.666666666666668C138.921875,24.333333333333332,138.921875,27.666666666666668,138.921875,32.833333333333336C138.921875,38,138.921875,45,138.921875,52C138.921875,59,138.921875,66,138.921875,71.16666666666667C138.921875,76.33333333333333,138.921875,79.66666666666667,138.921875,81.33333333333333L138.921875,83" style="stroke: rgb(0, 0, 0); stroke-width: 1px; fill: none; marker-end: url(&quot;#arrowhead&quot;);"/><path class="edge-path-hit-test" d="M138.921875,21L138.921875,22.666666666666668C138.921875,24.333333333333332,138.921875,27.666666666666668,138.921875,32.833333333333336C138.921875,38,138.921875,45,138.921875,52C138.921875,59,138.921875,66,138.921875,71.16666666666667C138.921875,76.33333333333333,138.921875,79.66666666666667,138.921875,81.33333333333333L138.921875,83" style="pointer-events: stroke; stroke-width: 0.5em; fill: none; stroke: rgb(0, 0, 0); stroke-opacity: 0.001;"/><path id="edge-/net/embeddings/Gather_output_0" class="edge-path" d="M40.7109375,243L40.7109375,244.66666666666666C40.7109375,246.33333333333334,40.7109375,249.66666666666666,45.995442708333336,253.53944926152784C51.279947916666664,257.41223185638904,61.848958333333336,261.8244637127781,67.13346354166667,264.0305796409726L72.41796875,266.2366955691671" style="stroke: rgb(0, 0, 0); stroke-width: 1px; fill: none; marker-end: url(&quot;#arrowhead&quot;);"/><path class="edge-path-hit-test" d="M40.7109375,243L40.7109375,244.66666666666666C40.7109375,246.33333333333334,40.7109375,249.66666666666666,45.995442708333336,253.53944926152784C51.279947916666664,257.41223185638904,61.848958333333336,261.8244637127781,67.13346354166667,264.0305796409726L72.41796875,266.2366955691671" style="pointer-events: stroke; stroke-width: 0.5em; fill: none; stroke: rgb(0, 0, 0); stroke-opacity: 0.001;"/><path id="edge-/net/Unsqueeze_output_0" class="edge-path" d="M138.921875,123L138.921875,124.66666666666667C138.921875,126.33333333333333,138.921875,129.66666666666666,138.921875,133C138.921875,136.33333333333334,138.921875,139.66666666666666,138.921875,141.33333333333334L138.921875,143" style="stroke: rgb(0, 0, 0); stroke-width: 1px; fill: none; marker-end: url(&quot;#arrowhead&quot;);"/><path class="edge-path-hit-test" d="M138.921875,123L138.921875,124.66666666666667C138.921875,126.33333333333333,138.921875,129.66666666666666,138.921875,133C138.921875,136.33333333333334,138.921875,139.66666666666666,138.921875,141.33333333333334L138.921875,143" style="pointer-events: stroke; stroke-width: 0.5em; fill: none; stroke: rgb(0, 0, 0); stroke-opacity: 0.001;"/><path id="edge-/net/qual_linear1/qual_linear1.0/MatMul_output_0" class="edge-path" d="M138.921875,183L138.921875,184.66666666666666C138.921875,186.33333333333334,138.921875,189.66666666666666,138.921875,193C138.921875,196.33333333333334,138.921875,199.66666666666666,138.921875,201.33333333333334L138.921875,203" style="stroke: rgb(0, 0, 0); stroke-width: 1px; fill: none; marker-end: url(&quot;#arrowhead&quot;);"/><path class="edge-path-hit-test" d="M138.921875,183L138.921875,184.66666666666666C138.921875,186.33333333333334,138.921875,189.66666666666666,138.921875,193C138.921875,196.33333333333334,138.921875,199.66666666666666,138.921875,201.33333333333334L138.921875,203" style="pointer-events: stroke; stroke-width: 0.5em; fill: none; stroke: rgb(0, 0, 0); stroke-opacity: 0.001;"/><path id="edge-/net/qual_linear1/qual_linear1.0/Add_output_0" class="edge-path" d="M138.921875,243L138.921875,244.66666666666666C138.921875,246.33333333333334,138.921875,249.66666666666666,133.63736979166666,253.53944926152784C128.35286458333334,257.41223185638904,117.78385416666667,261.8244637127781,112.49934895833333,264.0305796409726L107.21484375,266.2366955691671" style="stroke: rgb(0, 0, 0); stroke-width: 1px; fill: none; marker-end: url(&quot;#arrowhead&quot;);"/><path class="edge-path-hit-test" d="M138.921875,243L138.921875,244.66666666666666C138.921875,246.33333333333334,138.921875,249.66666666666666,133.63736979166666,253.53944926152784C128.35286458333334,257.41223185638904,117.78385416666667,261.8244637127781,112.49934895833333,264.0305796409726L107.21484375,266.2366955691671" style="pointer-events: stroke; stroke-width: 0.5em; fill: none; stroke: rgb(0, 0, 0); stroke-opacity: 0.001;"/><path id="edge-/net/Add_output_0" class="edge-path" d="M89.81640625,284L89.81640625,285.6666666666667C89.81640625,287.3333333333333,89.81640625,290.6666666666667,89.81640625,294C89.81640625,297.3333333333333,89.81640625,300.6666666666667,89.81640625,302.3333333333333L89.81640625,304" style="stroke: rgb(0, 0, 0); stroke-width: 1px; fill: none; marker-end: url(&quot;#arrowhead&quot;);"/><path class="edge-path-hit-test" d="M89.81640625,284L89.81640625,285.6666666666667C89.81640625,287.3333333333333,89.81640625,290.6666666666667,89.81640625,294C89.81640625,297.3333333333333,89.81640625,300.6666666666667,89.81640625,302.3333333333333L89.81640625,304" style="pointer-events: stroke; stroke-width: 0.5em; fill: none; stroke: rgb(0, 0, 0); stroke-opacity: 0.001;"/><path id="edge-/net/Relu_output_0" class="edge-path" d="M89.81640625,325L89.81640625,326.6666666666667C89.81640625,328.3333333333333,89.81640625,331.6666666666667,89.81640625,335C89.81640625,338.3333333333333,89.81640625,341.6666666666667,89.81640625,343.3333333333333L89.81640625,345" style="stroke: rgb(0, 0, 0); stroke-width: 1px; fill: none; marker-end: url(&quot;#arrowhead&quot;);"/><path class="edge-path-hit-test" d="M89.81640625,325L89.81640625,326.6666666666667C89.81640625,328.3333333333333,89.81640625,331.6666666666667,89.81640625,335C89.81640625,338.3333333333333,89.81640625,341.6666666666667,89.81640625,343.3333333333333L89.81640625,345" style="pointer-events: stroke; stroke-width: 0.5em; fill: none; stroke: rgb(0, 0, 0); stroke-opacity: 0.001;"/><path id="edge-/net/Transpose_output_0" class="edge-path" d="M89.81640625,366L89.81640625,367.6666666666667C89.81640625,369.3333333333333,89.81640625,372.6666666666667,89.81640625,376C89.81640625,379.3333333333333,89.81640625,382.6666666666667,89.81640625,384.3333333333333L89.81640625,386" style="stroke: rgb(0, 0, 0); stroke-width: 1px; fill: none; marker-end: url(&quot;#arrowhead&quot;);"/><path class="edge-path-hit-test" d="M89.81640625,366L89.81640625,367.6666666666667C89.81640625,369.3333333333333,89.81640625,372.6666666666667,89.81640625,376C89.81640625,379.3333333333333,89.81640625,382.6666666666667,89.81640625,384.3333333333333L89.81640625,386" style="pointer-events: stroke; stroke-width: 0.5em; fill: none; stroke: rgb(0, 0, 0); stroke-opacity: 0.001;"/><path id="edge-/net/model/model.0/Conv_output_0" class="edge-path" d="M89.81640625,439L89.81640625,440.6666666666667C89.81640625,442.3333333333333,89.81640625,445.6666666666667,89.81640625,449C89.81640625,452.3333333333333,89.81640625,455.6666666666667,89.81640625,457.3333333333333L89.81640625,459" style="stroke: rgb(0, 0, 0); stroke-width: 1px; fill: none; marker-end: url(&quot;#arrowhead&quot;);"/><path class="edge-path-hit-test" d="M89.81640625,439L89.81640625,440.6666666666667C89.81640625,442.3333333333333,89.81640625,445.6666666666667,89.81640625,449C89.81640625,452.3333333333333,89.81640625,455.6666666666667,89.81640625,457.3333333333333L89.81640625,459" style="pointer-events: stroke; stroke-width: 0.5em; fill: none; stroke: rgb(0, 0, 0); stroke-opacity: 0.001;"/><path id="edge-/net/model/model.2/Relu_output_0" class="edge-path" d="M89.81640625,480L89.81640625,481.6666666666667C89.81640625,483.3333333333333,89.81640625,486.6666666666667,89.81640625,490C89.81640625,493.3333333333333,89.81640625,496.6666666666667,89.81640625,498.3333333333333L89.81640625,500" style="stroke: rgb(0, 0, 0); stroke-width: 1px; fill: none; marker-end: url(&quot;#arrowhead&quot;);"/><path class="edge-path-hit-test" d="M89.81640625,480L89.81640625,481.6666666666667C89.81640625,483.3333333333333,89.81640625,486.6666666666667,89.81640625,490C89.81640625,493.3333333333333,89.81640625,496.6666666666667,89.81640625,498.3333333333333L89.81640625,500" style="pointer-events: stroke; stroke-width: 0.5em; fill: none; stroke: rgb(0, 0, 0); stroke-opacity: 0.001;"/><path id="edge-/net/model/model.3/Conv_output_0" class="edge-path" d="M89.81640625,553L89.81640625,554.6666666666666C89.81640625,556.3333333333334,89.81640625,559.6666666666666,89.81640625,563C89.81640625,566.3333333333334,89.81640625,569.6666666666666,89.81640625,571.3333333333334L89.81640625,573" style="stroke: rgb(0, 0, 0); stroke-width: 1px; fill: none; marker-end: url(&quot;#arrowhead&quot;);"/><path class="edge-path-hit-test" d="M89.81640625,553L89.81640625,554.6666666666666C89.81640625,556.3333333333334,89.81640625,559.6666666666666,89.81640625,563C89.81640625,566.3333333333334,89.81640625,569.6666666666666,89.81640625,571.3333333333334L89.81640625,573" style="pointer-events: stroke; stroke-width: 0.5em; fill: none; stroke: rgb(0, 0, 0); stroke-opacity: 0.001;"/><path id="edge-/net/model/model.5/Relu_output_0" class="edge-path" d="M89.81640625,594L89.81640625,595.6666666666666C89.81640625,597.3333333333334,89.81640625,600.6666666666666,89.81640625,604C89.81640625,607.3333333333334,89.81640625,610.6666666666666,89.81640625,612.3333333333334L89.81640625,614" style="stroke: rgb(0, 0, 0); stroke-width: 1px; fill: none; marker-end: url(&quot;#arrowhead&quot;);"/><path class="edge-path-hit-test" d="M89.81640625,594L89.81640625,595.6666666666666C89.81640625,597.3333333333334,89.81640625,600.6666666666666,89.81640625,604C89.81640625,607.3333333333334,89.81640625,610.6666666666666,89.81640625,612.3333333333334L89.81640625,614" style="pointer-events: stroke; stroke-width: 0.5em; fill: none; stroke: rgb(0, 0, 0); stroke-opacity: 0.001;"/><path id="edge-/net/model/model.6/Conv_output_0" class="edge-path" d="M89.81640625,667L89.81640625,668.6666666666666C89.81640625,670.3333333333334,89.81640625,673.6666666666666,89.81640625,677C89.81640625,680.3333333333334,89.81640625,683.6666666666666,89.81640625,685.3333333333334L89.81640625,687" style="stroke: rgb(0, 0, 0); stroke-width: 1px; fill: none; marker-end: url(&quot;#arrowhead&quot;);"/><path class="edge-path-hit-test" d="M89.81640625,667L89.81640625,668.6666666666666C89.81640625,670.3333333333334,89.81640625,673.6666666666666,89.81640625,677C89.81640625,680.3333333333334,89.81640625,683.6666666666666,89.81640625,685.3333333333334L89.81640625,687" style="pointer-events: stroke; stroke-width: 0.5em; fill: none; stroke: rgb(0, 0, 0); stroke-opacity: 0.001;"/><path id="edge-/net/model/model.8/Relu_output_0" class="edge-path" d="M89.81640625,708L89.81640625,709.6666666666666C89.81640625,711.3333333333334,89.81640625,714.6666666666666,89.81640625,718C89.81640625,721.3333333333334,89.81640625,724.6666666666666,89.81640625,726.3333333333334L89.81640625,728" style="stroke: rgb(0, 0, 0); stroke-width: 1px; fill: none; marker-end: url(&quot;#arrowhead&quot;);"/><path class="edge-path-hit-test" d="M89.81640625,708L89.81640625,709.6666666666666C89.81640625,711.3333333333334,89.81640625,714.6666666666666,89.81640625,718C89.81640625,721.3333333333334,89.81640625,724.6666666666666,89.81640625,726.3333333333334L89.81640625,728" style="pointer-events: stroke; stroke-width: 0.5em; fill: none; stroke: rgb(0, 0, 0); stroke-opacity: 0.001;"/><path id="edge-/net/Transpose_1_output_0" class="edge-path" d="M89.81640625,749L89.81640625,750.6666666666666C89.81640625,752.3333333333334,89.81640625,755.6666666666666,89.81640625,759C89.81640625,762.3333333333334,89.81640625,765.6666666666666,89.81640625,767.3333333333334L89.81640625,769" style="stroke: rgb(0, 0, 0); stroke-width: 1px; fill: none; marker-end: url(&quot;#arrowhead&quot;);"/><path class="edge-path-hit-test" d="M89.81640625,749L89.81640625,750.6666666666666C89.81640625,752.3333333333334,89.81640625,755.6666666666666,89.81640625,759C89.81640625,762.3333333333334,89.81640625,765.6666666666666,89.81640625,767.3333333333334L89.81640625,769" style="pointer-events: stroke; stroke-width: 0.5em; fill: none; stroke: rgb(0, 0, 0); stroke-opacity: 0.001;"/><path id="edge-/net/dense_model/dense_model.0/MatMul_output_0" class="edge-path" d="M89.81640625,809L89.81640625,810.6666666666666C89.81640625,812.3333333333334,89.81640625,815.6666666666666,89.81640625,819C89.81640625,822.3333333333334,89.81640625,825.6666666666666,89.81640625,827.3333333333334L89.81640625,829" style="stroke: rgb(0, 0, 0); stroke-width: 1px; fill: none; marker-end: url(&quot;#arrowhead&quot;);"/><path class="edge-path-hit-test" d="M89.81640625,809L89.81640625,810.6666666666666C89.81640625,812.3333333333334,89.81640625,815.6666666666666,89.81640625,819C89.81640625,822.3333333333334,89.81640625,825.6666666666666,89.81640625,827.3333333333334L89.81640625,829" style="pointer-events: stroke; stroke-width: 0.5em; fill: none; stroke: rgb(0, 0, 0); stroke-opacity: 0.001;"/><path id="edge-49" class="edge-path" d="M89.81640625,869L89.81640625,872.5C89.81640625,876,89.81640625,883,89.81640625,890C89.81640625,897,89.81640625,904,89.81640625,907.5L89.81640625,911" style="stroke: rgb(0, 0, 0); stroke-width: 1px; fill: none; marker-end: url(&quot;#arrowhead&quot;);"/><path class="edge-path-hit-test" d="M89.81640625,869L89.81640625,872.5C89.81640625,876,89.81640625,883,89.81640625,890C89.81640625,897,89.81640625,904,89.81640625,907.5L89.81640625,911" style="pointer-events: stroke; stroke-width: 0.5em; fill: none; stroke: rgb(0, 0, 0); stroke-opacity: 0.001;"/></g><g id="edge-labels" class="edge-labels"><text class="edge-label" id="edge-label-edge-input.1" style="opacity: 1; font-family: -apple-system, BlinkMacSystemFont, &quot;Segoe WPC&quot;, &quot;Segoe UI&quot;, Ubuntu, &quot;Droid Sans&quot;, sans-serif, &quot;PingFang SC&quot;; font-size: 10px;" transform="translate(45.7109375,157)"><tspan xml:space="preserve" dy="1em" x="1">1×1000</tspan></text><text class="edge-label" id="edge-label-edge-onnx::Unsqueeze_1" style="opacity: 1; font-family: -apple-system, BlinkMacSystemFont, &quot;Segoe WPC&quot;, &quot;Segoe UI&quot;, Ubuntu, &quot;Droid Sans&quot;, sans-serif, &quot;PingFang SC&quot;; font-size: 10px;" transform="translate(143.921875,46)"><tspan xml:space="preserve" dy="1em" x="1">1×1000</tspan></text><text class="edge-label" id="edge-label-edge-49" style="opacity: 1; font-family: -apple-system, BlinkMacSystemFont, &quot;Segoe WPC&quot;, &quot;Segoe UI&quot;, Ubuntu, &quot;Droid Sans&quot;, sans-serif, &quot;PingFang SC&quot;; font-size: 10px;" transform="translate(94.81640625,884)"><tspan xml:space="preserve" dy="1em" x="1">1×1000×2</tspan></text></g><g id="nodes" class="nodes"><g id="input-name-input.1" class="node graph-input" style="" transform="translate(16.328125,92.5)"><g class="node-item graph-item-input" transform="translate(0,0)"><path d="M5,0h38.765625a5,5 0 0 1 5,5v11a5,5 0 0 1 -5,5h-38.765625a5,5 0 0 1 -5,-5v-11a5,5 0 0 1 5,-5z" style="stroke: rgb(0, 0, 0); fill: rgb(238, 238, 238); stroke-width: 0;"/><text x="6" y="15" style="font-family: -apple-system, BlinkMacSystemFont, &quot;Segoe WPC&quot;, &quot;Segoe UI&quot;, Ubuntu, &quot;Droid Sans&quot;, sans-serif, &quot;PingFang SC&quot;; font-size: 11px; text-rendering: geometricprecision; user-select: none;">input.1</text><title>int64[1,1000]</title></g><path class="node node-border" d="M5,0h38.765625a5,5 0 0 1 5,5v11a5,5 0 0 1 -5,5h-38.765625a5,5 0 0 1 -5,-5v-11a5,5 0 0 1 5,-5z" style="stroke: rgb(51, 51, 51); fill: none; stroke-width: 1px;"/></g><g id="input-name-onnx::Unsqueeze_1" class="node graph-input" style="" transform="translate(81.5,0)"><g class="node-item graph-item-input" transform="translate(0,0)"><path d="M5,0h104.84375a5,5 0 0 1 5,5v11a5,5 0 0 1 -5,5h-104.84375a5,5 0 0 1 -5,-5v-11a5,5 0 0 1 5,-5z" style="stroke: rgb(0, 0, 0); fill: rgb(238, 238, 238); stroke-width: 0;"/><text x="6" y="15" style="font-family: -apple-system, BlinkMacSystemFont, &quot;Segoe WPC&quot;, &quot;Segoe UI&quot;, Ubuntu, &quot;Droid Sans&quot;, sans-serif, &quot;PingFang SC&quot;; font-size: 11px; text-rendering: geometricprecision; user-select: none;">onnx::Unsqueeze_1</text><title>float32[1,1000]</title></g><path class="node node-border" d="M5,0h104.84375a5,5 0 0 1 5,5v11a5,5 0 0 1 -5,5h-104.84375a5,5 0 0 1 -5,-5v-11a5,5 0 0 1 5,-5z" style="stroke: rgb(51, 51, 51); fill: none; stroke-width: 1px;"/></g><g id="node-name-/net/embeddings/Gather" class="node graph-node" style="" transform="translate(0,203)"><g class="node-item node-item-type node-item-type-transform" transform="translate(0,0)"><path d="M5,0h71.421875a5,5 0 0 1 5,5v16a0,0 0 0 1 0,0h-81.421875a0,0 0 0 1 0,0v-16a5,5 0 0 1 5,-5z" style="stroke: rgb(0, 0, 0); fill: rgb(51, 85, 68); stroke-width: 0;"/><text x="6" y="15" style="font-family: -apple-system, BlinkMacSystemFont, &quot;Segoe WPC&quot;, &quot;Segoe UI&quot;, Ubuntu, &quot;Droid Sans&quot;, sans-serif, &quot;PingFang SC&quot;; font-size: 11px; text-rendering: geometricprecision; user-select: none; fill: rgb(255, 255, 255);">Gather</text><title>/net/embeddings/Gather</title></g><g class="node-argument-list" transform="translate(0,21)"><path d="M0,0h81.421875a0,0 0 0 1 0,0v14a5,5 0 0 1 -5,5h-71.421875a5,5 0 0 1 -5,-5v-14a0,0 0 0 1 0,0z" style="stroke: rgb(0, 0, 0); fill: rgb(255, 255, 255); stroke-width: 0;"/><g class="node-argument"><rect rx="3" ry="3" x="3" y="3" width="75.421875" height="13" style="fill: transparent;"/><text xml:space="preserve" x="6" y="13" style="font-family: -apple-system, BlinkMacSystemFont, &quot;Segoe WPC&quot;, &quot;Segoe UI&quot;, Ubuntu, &quot;Droid Sans&quot;, sans-serif, &quot;PingFang SC&quot;; font-size: 9px; font-weight: normal; text-rendering: geometricprecision; user-select: none;"><title>float32[11,100]</title><tspan style="font-weight: bold;">data</tspan><tspan>〈11×100〉</tspan></text></g><line class="node" x1="0" x2="81.421875" y1="0" y2="0" style="stroke: rgb(51, 51, 51); fill: none; stroke-width: 1px;"/></g><path class="node node-border" d="M5,0h71.421875a5,5 0 0 1 5,5v30a5,5 0 0 1 -5,5h-71.421875a5,5 0 0 1 -5,-5v-30a5,5 0 0 1 5,-5z" style="stroke: rgb(51, 51, 51); fill: none; stroke-width: 1px;"/></g><g id="node-name-/net/Unsqueeze" class="node graph-node" style="" transform="translate(101.421875,83)"><g class="node-item node-item-type node-item-type-transform" transform="translate(0,0)"><path d="M5,0h65a5,5 0 0 1 5,5v16a0,0 0 0 1 0,0h-75a0,0 0 0 1 0,0v-16a5,5 0 0 1 5,-5z" style="stroke: rgb(0, 0, 0); fill: rgb(51, 85, 68); stroke-width: 0;"/><text x="6" y="15" style="font-family: -apple-system, BlinkMacSystemFont, &quot;Segoe WPC&quot;, &quot;Segoe UI&quot;, Ubuntu, &quot;Droid Sans&quot;, sans-serif, &quot;PingFang SC&quot;; font-size: 11px; text-rendering: geometricprecision; user-select: none; fill: rgb(255, 255, 255);">Unsqueeze</text><title>/net/Unsqueeze</title></g><g class="node-argument-list" transform="translate(0,21)"><path d="M0,0h75a0,0 0 0 1 0,0v14a5,5 0 0 1 -5,5h-65a5,5 0 0 1 -5,-5v-14a0,0 0 0 1 0,0z" style="stroke: rgb(0, 0, 0); fill: rgb(255, 255, 255); stroke-width: 0;"/><g class="node-argument"><rect rx="3" ry="3" x="3" y="3" width="69" height="13" style="fill: transparent;"/><text xml:space="preserve" x="6" y="13" style="font-family: -apple-system, BlinkMacSystemFont, &quot;Segoe WPC&quot;, &quot;Segoe UI&quot;, Ubuntu, &quot;Droid Sans&quot;, sans-serif, &quot;PingFang SC&quot;; font-size: 9px; font-weight: normal; text-rendering: geometricprecision; user-select: none;"><title>int64[1]</title><tspan style="font-weight: bold;">axes</tspan><tspan>〈1〉</tspan></text></g><line class="node" x1="0" x2="75" y1="0" y2="0" style="stroke: rgb(51, 51, 51); fill: none; stroke-width: 1px;"/></g><path class="node node-border" d="M5,0h65a5,5 0 0 1 5,5v30a5,5 0 0 1 -5,5h-65a5,5 0 0 1 -5,-5v-30a5,5 0 0 1 5,-5z" style="stroke: rgb(51, 51, 51); fill: none; stroke-width: 1px;"/></g><g id="node-name-/net/qual_linear1/qual_linear1.0/MatMul" class="node graph-node" style="" transform="translate(101.421875,143)"><g class="node-item node-item-type" transform="translate(0,0)"><path d="M5,0h65a5,5 0 0 1 5,5v16a0,0 0 0 1 0,0h-75a0,0 0 0 1 0,0v-16a5,5 0 0 1 5,-5z" style="stroke: rgb(0, 0, 0); fill: rgb(0, 0, 0); stroke-width: 0;"/><text x="6" y="15" style="font-family: -apple-system, BlinkMacSystemFont, &quot;Segoe WPC&quot;, &quot;Segoe UI&quot;, Ubuntu, &quot;Droid Sans&quot;, sans-serif, &quot;PingFang SC&quot;; font-size: 11px; text-rendering: geometricprecision; user-select: none; fill: rgb(255, 255, 255);">MatMul</text><title>/net/qual_linear1/qual_linear1.0/MatMul</title></g><g class="node-argument-list" transform="translate(0,21)"><path d="M0,0h75a0,0 0 0 1 0,0v14a5,5 0 0 1 -5,5h-65a5,5 0 0 1 -5,-5v-14a0,0 0 0 1 0,0z" style="stroke: rgb(0, 0, 0); fill: rgb(255, 255, 255); stroke-width: 0;"/><g class="node-argument"><rect rx="3" ry="3" x="3" y="3" width="69" height="13" style="fill: transparent;"/><text xml:space="preserve" x="6" y="13" style="font-family: -apple-system, BlinkMacSystemFont, &quot;Segoe WPC&quot;, &quot;Segoe UI&quot;, Ubuntu, &quot;Droid Sans&quot;, sans-serif, &quot;PingFang SC&quot;; font-size: 9px; font-weight: normal; text-rendering: geometricprecision; user-select: none;"><title>float32[1,100]</title><tspan style="font-weight: bold;">B</tspan><tspan>〈1×100〉</tspan></text></g><line class="node" x1="0" x2="75" y1="0" y2="0" style="stroke: rgb(51, 51, 51); fill: none; stroke-width: 1px;"/></g><path class="node node-border" d="M5,0h65a5,5 0 0 1 5,5v30a5,5 0 0 1 -5,5h-65a5,5 0 0 1 -5,-5v-30a5,5 0 0 1 5,-5z" style="stroke: rgb(51, 51, 51); fill: none; stroke-width: 1px;"/></g><g id="node-name-/net/qual_linear1/qual_linear1.0/Add" class="node graph-node" style="" transform="translate(101.421875,203)"><g class="node-item node-item-type" transform="translate(0,0)"><path d="M5,0h65a5,5 0 0 1 5,5v16a0,0 0 0 1 0,0h-75a0,0 0 0 1 0,0v-16a5,5 0 0 1 5,-5z" style="stroke: rgb(0, 0, 0); fill: rgb(0, 0, 0); stroke-width: 0;"/><text x="6" y="15" style="font-family: -apple-system, BlinkMacSystemFont, &quot;Segoe WPC&quot;, &quot;Segoe UI&quot;, Ubuntu, &quot;Droid Sans&quot;, sans-serif, &quot;PingFang SC&quot;; font-size: 11px; text-rendering: geometricprecision; user-select: none; fill: rgb(255, 255, 255);">Add</text><title>/net/qual_linear1/qual_linear1.0/Add</title></g><g class="node-argument-list" transform="translate(0,21)"><path d="M0,0h75a0,0 0 0 1 0,0v14a5,5 0 0 1 -5,5h-65a5,5 0 0 1 -5,-5v-14a0,0 0 0 1 0,0z" style="stroke: rgb(0, 0, 0); fill: rgb(255, 255, 255); stroke-width: 0;"/><g class="node-argument"><rect rx="3" ry="3" x="3" y="3" width="69" height="13" style="fill: transparent;"/><text xml:space="preserve" x="6" y="13" style="font-family: -apple-system, BlinkMacSystemFont, &quot;Segoe WPC&quot;, &quot;Segoe UI&quot;, Ubuntu, &quot;Droid Sans&quot;, sans-serif, &quot;PingFang SC&quot;; font-size: 9px; font-weight: normal; text-rendering: geometricprecision; user-select: none;"><title>float32[100]</title><tspan style="font-weight: bold;">A</tspan><tspan>〈100〉</tspan></text></g><line class="node" x1="0" x2="75" y1="0" y2="0" style="stroke: rgb(51, 51, 51); fill: none; stroke-width: 1px;"/></g><path class="node node-border" d="M5,0h65a5,5 0 0 1 5,5v30a5,5 0 0 1 -5,5h-65a5,5 0 0 1 -5,-5v-30a5,5 0 0 1 5,-5z" style="stroke: rgb(51, 51, 51); fill: none; stroke-width: 1px;"/></g><g id="node-name-/net/Add" class="node graph-node" style="" transform="translate(72.41796875,263)"><g class="node-item node-item-type" transform="translate(0,0)"><path d="M5,0h24.796875a5,5 0 0 1 5,5v11a5,5 0 0 1 -5,5h-24.796875a5,5 0 0 1 -5,-5v-11a5,5 0 0 1 5,-5z" style="stroke: rgb(0, 0, 0); fill: rgb(0, 0, 0); stroke-width: 0;"/><text x="6" y="15" style="font-family: -apple-system, BlinkMacSystemFont, &quot;Segoe WPC&quot;, &quot;Segoe UI&quot;, Ubuntu, &quot;Droid Sans&quot;, sans-serif, &quot;PingFang SC&quot;; font-size: 11px; text-rendering: geometricprecision; user-select: none; fill: rgb(255, 255, 255);">Add</text><title>/net/Add</title></g><path class="node node-border" d="M5,0h24.796875a5,5 0 0 1 5,5v11a5,5 0 0 1 -5,5h-24.796875a5,5 0 0 1 -5,-5v-11a5,5 0 0 1 5,-5z" style="stroke: rgb(51, 51, 51); fill: none; stroke-width: 1px;"/></g><g id="node-name-/net/Relu" class="node graph-node" style="" transform="translate(71.42578125,304)"><g class="node-item node-item-type node-item-type-activation" transform="translate(0,0)"><path d="M5,0h26.78125a5,5 0 0 1 5,5v11a5,5 0 0 1 -5,5h-26.78125a5,5 0 0 1 -5,-5v-11a5,5 0 0 1 5,-5z" style="stroke: rgb(0, 0, 0); fill: rgb(112, 41, 33); stroke-width: 0;"/><text x="6" y="15" style="font-family: -apple-system, BlinkMacSystemFont, &quot;Segoe WPC&quot;, &quot;Segoe UI&quot;, Ubuntu, &quot;Droid Sans&quot;, sans-serif, &quot;PingFang SC&quot;; font-size: 11px; text-rendering: geometricprecision; user-select: none; fill: rgb(255, 255, 255);">Relu</text><title>/net/Relu</title></g><path class="node node-border" d="M5,0h26.78125a5,5 0 0 1 5,5v11a5,5 0 0 1 -5,5h-26.78125a5,5 0 0 1 -5,-5v-11a5,5 0 0 1 5,-5z" style="stroke: rgb(51, 51, 51); fill: none; stroke-width: 1px;"/></g><g id="node-name-/net/Transpose" class="node graph-node" style="" transform="translate(55.59765625,345)"><g class="node-item node-item-type node-item-type-transform" transform="translate(0,0)"><path d="M5,0h58.4375a5,5 0 0 1 5,5v11a5,5 0 0 1 -5,5h-58.4375a5,5 0 0 1 -5,-5v-11a5,5 0 0 1 5,-5z" style="stroke: rgb(0, 0, 0); fill: rgb(51, 85, 68); stroke-width: 0;"/><text x="6" y="15" style="font-family: -apple-system, BlinkMacSystemFont, &quot;Segoe WPC&quot;, &quot;Segoe UI&quot;, Ubuntu, &quot;Droid Sans&quot;, sans-serif, &quot;PingFang SC&quot;; font-size: 11px; text-rendering: geometricprecision; user-select: none; fill: rgb(255, 255, 255);">Transpose</text><title>/net/Transpose</title></g><path class="node node-border" d="M5,0h58.4375a5,5 0 0 1 5,5v11a5,5 0 0 1 -5,5h-58.4375a5,5 0 0 1 -5,-5v-11a5,5 0 0 1 5,-5z" style="stroke: rgb(51, 51, 51); fill: none; stroke-width: 1px;"/></g><g id="node-name-/net/model/model.0/Conv" class="node graph-node" style="" transform="translate(45.76171875,386)"><g class="node-item node-item-type node-item-type-layer" transform="translate(0,0)"><path d="M5,0h78.109375a5,5 0 0 1 5,5v16a0,0 0 0 1 0,0h-88.109375a0,0 0 0 1 0,0v-16a5,5 0 0 1 5,-5z" style="stroke: rgb(0, 0, 0); fill: rgb(51, 85, 136); stroke-width: 0;"/><text x="6" y="15" style="font-family: -apple-system, BlinkMacSystemFont, &quot;Segoe WPC&quot;, &quot;Segoe UI&quot;, Ubuntu, &quot;Droid Sans&quot;, sans-serif, &quot;PingFang SC&quot;; font-size: 11px; text-rendering: geometricprecision; user-select: none; fill: rgb(255, 255, 255);">Conv</text><title>/net/model/model.0/Conv</title></g><g class="node-argument-list" transform="translate(0,21)"><path d="M0,0h88.109375a0,0 0 0 1 0,0v27a5,5 0 0 1 -5,5h-78.109375a5,5 0 0 1 -5,-5v-27a0,0 0 0 1 0,0z" style="stroke: rgb(0, 0, 0); fill: rgb(255, 255, 255); stroke-width: 0;"/><g class="node-argument"><rect rx="3" ry="3" x="3" y="3" width="82.109375" height="13" style="fill: transparent;"/><text xml:space="preserve" x="6" y="13" style="font-family: -apple-system, BlinkMacSystemFont, &quot;Segoe WPC&quot;, &quot;Segoe UI&quot;, Ubuntu, &quot;Droid Sans&quot;, sans-serif, &quot;PingFang SC&quot;; font-size: 9px; font-weight: normal; text-rendering: geometricprecision; user-select: none;"><title>float32[128,100,7]</title><tspan style="font-weight: bold;">W</tspan><tspan>〈128×100×7〉</tspan></text></g><g class="node-argument"><rect rx="3" ry="3" x="3" y="16" width="82.109375" height="13" style="fill: transparent;"/><text xml:space="preserve" x="6" y="26" style="font-family: -apple-system, BlinkMacSystemFont, &quot;Segoe WPC&quot;, &quot;Segoe UI&quot;, Ubuntu, &quot;Droid Sans&quot;, sans-serif, &quot;PingFang SC&quot;; font-size: 9px; font-weight: normal; text-rendering: geometricprecision; user-select: none;"><title>float32[128]</title><tspan style="font-weight: bold;">B</tspan><tspan>〈128〉</tspan></text></g><line class="node" x1="0" x2="88.109375" y1="0" y2="0" style="stroke: rgb(51, 51, 51); fill: none; stroke-width: 1px;"/></g><path class="node node-border" d="M5,0h78.109375a5,5 0 0 1 5,5v43a5,5 0 0 1 -5,5h-78.109375a5,5 0 0 1 -5,-5v-43a5,5 0 0 1 5,-5z" style="stroke: rgb(51, 51, 51); fill: none; stroke-width: 1px;"/></g><g id="node-name-/net/model/model.2/Relu" class="node graph-node" style="" transform="translate(71.42578125,459)"><g class="node-item node-item-type node-item-type-activation" transform="translate(0,0)"><path d="M5,0h26.78125a5,5 0 0 1 5,5v11a5,5 0 0 1 -5,5h-26.78125a5,5 0 0 1 -5,-5v-11a5,5 0 0 1 5,-5z" style="stroke: rgb(0, 0, 0); fill: rgb(112, 41, 33); stroke-width: 0;"/><text x="6" y="15" style="font-family: -apple-system, BlinkMacSystemFont, &quot;Segoe WPC&quot;, &quot;Segoe UI&quot;, Ubuntu, &quot;Droid Sans&quot;, sans-serif, &quot;PingFang SC&quot;; font-size: 11px; text-rendering: geometricprecision; user-select: none; fill: rgb(255, 255, 255);">Relu</text><title>/net/model/model.2/Relu</title></g><path class="node node-border" d="M5,0h26.78125a5,5 0 0 1 5,5v11a5,5 0 0 1 -5,5h-26.78125a5,5 0 0 1 -5,-5v-11a5,5 0 0 1 5,-5z" style="stroke: rgb(51, 51, 51); fill: none; stroke-width: 1px;"/></g><g id="node-name-/net/model/model.3/Conv" class="node graph-node" style="" transform="translate(44.85546875,500)"><g class="node-item node-item-type node-item-type-layer" transform="translate(0,0)"><path d="M5,0h79.921875a5,5 0 0 1 5,5v16a0,0 0 0 1 0,0h-89.921875a0,0 0 0 1 0,0v-16a5,5 0 0 1 5,-5z" style="stroke: rgb(0, 0, 0); fill: rgb(51, 85, 136); stroke-width: 0;"/><text x="6" y="15" style="font-family: -apple-system, BlinkMacSystemFont, &quot;Segoe WPC&quot;, &quot;Segoe UI&quot;, Ubuntu, &quot;Droid Sans&quot;, sans-serif, &quot;PingFang SC&quot;; font-size: 11px; text-rendering: geometricprecision; user-select: none; fill: rgb(255, 255, 255);">Conv</text><title>/net/model/model.3/Conv</title></g><g class="node-argument-list" transform="translate(0,21)"><path d="M0,0h89.921875a0,0 0 0 1 0,0v27a5,5 0 0 1 -5,5h-79.921875a5,5 0 0 1 -5,-5v-27a0,0 0 0 1 0,0z" style="stroke: rgb(0, 0, 0); fill: rgb(255, 255, 255); stroke-width: 0;"/><g class="node-argument"><rect rx="3" ry="3" x="3" y="3" width="83.921875" height="13" style="fill: transparent;"/><text xml:space="preserve" x="6" y="13" style="font-family: -apple-system, BlinkMacSystemFont, &quot;Segoe WPC&quot;, &quot;Segoe UI&quot;, Ubuntu, &quot;Droid Sans&quot;, sans-serif, &quot;PingFang SC&quot;; font-size: 9px; font-weight: normal; text-rendering: geometricprecision; user-select: none;"><title>float32[256,128,9]</title><tspan style="font-weight: bold;">W</tspan><tspan>〈256×128×9〉</tspan></text></g><g class="node-argument"><rect rx="3" ry="3" x="3" y="16" width="83.921875" height="13" style="fill: transparent;"/><text xml:space="preserve" x="6" y="26" style="font-family: -apple-system, BlinkMacSystemFont, &quot;Segoe WPC&quot;, &quot;Segoe UI&quot;, Ubuntu, &quot;Droid Sans&quot;, sans-serif, &quot;PingFang SC&quot;; font-size: 9px; font-weight: normal; text-rendering: geometricprecision; user-select: none;"><title>float32[256]</title><tspan style="font-weight: bold;">B</tspan><tspan>〈256〉</tspan></text></g><line class="node" x1="0" x2="89.921875" y1="0" y2="0" style="stroke: rgb(51, 51, 51); fill: none; stroke-width: 1px;"/></g><path class="node node-border" d="M5,0h79.921875a5,5 0 0 1 5,5v43a5,5 0 0 1 -5,5h-79.921875a5,5 0 0 1 -5,-5v-43a5,5 0 0 1 5,-5z" style="stroke: rgb(51, 51, 51); fill: none; stroke-width: 1px;"/></g><g id="node-name-/net/model/model.5/Relu" class="node graph-node" style="" transform="translate(71.42578125,573)"><g class="node-item node-item-type node-item-type-activation" transform="translate(0,0)"><path d="M5,0h26.78125a5,5 0 0 1 5,5v11a5,5 0 0 1 -5,5h-26.78125a5,5 0 0 1 -5,-5v-11a5,5 0 0 1 5,-5z" style="stroke: rgb(0, 0, 0); fill: rgb(112, 41, 33); stroke-width: 0;"/><text x="6" y="15" style="font-family: -apple-system, BlinkMacSystemFont, &quot;Segoe WPC&quot;, &quot;Segoe UI&quot;, Ubuntu, &quot;Droid Sans&quot;, sans-serif, &quot;PingFang SC&quot;; font-size: 11px; text-rendering: geometricprecision; user-select: none; fill: rgb(255, 255, 255);">Relu</text><title>/net/model/model.5/Relu</title></g><path class="node node-border" d="M5,0h26.78125a5,5 0 0 1 5,5v11a5,5 0 0 1 -5,5h-26.78125a5,5 0 0 1 -5,-5v-11a5,5 0 0 1 5,-5z" style="stroke: rgb(51, 51, 51); fill: none; stroke-width: 1px;"/></g><g id="node-name-/net/model/model.6/Conv" class="node graph-node" style="" transform="translate(43.55078125,614)"><g class="node-item node-item-type node-item-type-layer" transform="translate(0,0)"><path d="M5,0h82.53125a5,5 0 0 1 5,5v16a0,0 0 0 1 0,0h-92.53125a0,0 0 0 1 0,0v-16a5,5 0 0 1 5,-5z" style="stroke: rgb(0, 0, 0); fill: rgb(51, 85, 136); stroke-width: 0;"/><text x="6" y="15" style="font-family: -apple-system, BlinkMacSystemFont, &quot;Segoe WPC&quot;, &quot;Segoe UI&quot;, Ubuntu, &quot;Droid Sans&quot;, sans-serif, &quot;PingFang SC&quot;; font-size: 11px; text-rendering: geometricprecision; user-select: none; fill: rgb(255, 255, 255);">Conv</text><title>/net/model/model.6/Conv</title></g><g class="node-argument-list" transform="translate(0,21)"><path d="M0,0h92.53125a0,0 0 0 1 0,0v27a5,5 0 0 1 -5,5h-82.53125a5,5 0 0 1 -5,-5v-27a0,0 0 0 1 0,0z" style="stroke: rgb(0, 0, 0); fill: rgb(255, 255, 255); stroke-width: 0;"/><g class="node-argument"><rect rx="3" ry="3" x="3" y="3" width="86.53125" height="13" style="fill: transparent;"/><text xml:space="preserve" x="6" y="13" style="font-family: -apple-system, BlinkMacSystemFont, &quot;Segoe WPC&quot;, &quot;Segoe UI&quot;, Ubuntu, &quot;Droid Sans&quot;, sans-serif, &quot;PingFang SC&quot;; font-size: 9px; font-weight: normal; text-rendering: geometricprecision; user-select: none;"><title>float32[512,256,11]</title><tspan style="font-weight: bold;">W</tspan><tspan>〈512×256×11〉</tspan></text></g><g class="node-argument"><rect rx="3" ry="3" x="3" y="16" width="86.53125" height="13" style="fill: transparent;"/><text xml:space="preserve" x="6" y="26" style="font-family: -apple-system, BlinkMacSystemFont, &quot;Segoe WPC&quot;, &quot;Segoe UI&quot;, Ubuntu, &quot;Droid Sans&quot;, sans-serif, &quot;PingFang SC&quot;; font-size: 9px; font-weight: normal; text-rendering: geometricprecision; user-select: none;"><title>float32[512]</title><tspan style="font-weight: bold;">B</tspan><tspan>〈512〉</tspan></text></g><line class="node" x1="0" x2="92.53125" y1="0" y2="0" style="stroke: rgb(51, 51, 51); fill: none; stroke-width: 1px;"/></g><path class="node node-border" d="M5,0h82.53125a5,5 0 0 1 5,5v43a5,5 0 0 1 -5,5h-82.53125a5,5 0 0 1 -5,-5v-43a5,5 0 0 1 5,-5z" style="stroke: rgb(51, 51, 51); fill: none; stroke-width: 1px;"/></g><g id="node-name-/net/model/model.8/Relu" class="node graph-node" style="" transform="translate(71.42578125,687)"><g class="node-item node-item-type node-item-type-activation" transform="translate(0,0)"><path d="M5,0h26.78125a5,5 0 0 1 5,5v11a5,5 0 0 1 -5,5h-26.78125a5,5 0 0 1 -5,-5v-11a5,5 0 0 1 5,-5z" style="stroke: rgb(0, 0, 0); fill: rgb(112, 41, 33); stroke-width: 0;"/><text x="6" y="15" style="font-family: -apple-system, BlinkMacSystemFont, &quot;Segoe WPC&quot;, &quot;Segoe UI&quot;, Ubuntu, &quot;Droid Sans&quot;, sans-serif, &quot;PingFang SC&quot;; font-size: 11px; text-rendering: geometricprecision; user-select: none; fill: rgb(255, 255, 255);">Relu</text><title>/net/model/model.8/Relu</title></g><path class="node node-border" d="M5,0h26.78125a5,5 0 0 1 5,5v11a5,5 0 0 1 -5,5h-26.78125a5,5 0 0 1 -5,-5v-11a5,5 0 0 1 5,-5z" style="stroke: rgb(51, 51, 51); fill: none; stroke-width: 1px;"/></g><g id="node-name-/net/Transpose_1" class="node graph-node" style="" transform="translate(55.59765625,728)"><g class="node-item node-item-type node-item-type-transform" transform="translate(0,0)"><path d="M5,0h58.4375a5,5 0 0 1 5,5v11a5,5 0 0 1 -5,5h-58.4375a5,5 0 0 1 -5,-5v-11a5,5 0 0 1 5,-5z" style="stroke: rgb(0, 0, 0); fill: rgb(51, 85, 68); stroke-width: 0;"/><text x="6" y="15" style="font-family: -apple-system, BlinkMacSystemFont, &quot;Segoe WPC&quot;, &quot;Segoe UI&quot;, Ubuntu, &quot;Droid Sans&quot;, sans-serif, &quot;PingFang SC&quot;; font-size: 11px; text-rendering: geometricprecision; user-select: none; fill: rgb(255, 255, 255);">Transpose</text><title>/net/Transpose_1</title></g><path class="node node-border" d="M5,0h58.4375a5,5 0 0 1 5,5v11a5,5 0 0 1 -5,5h-58.4375a5,5 0 0 1 -5,-5v-11a5,5 0 0 1 5,-5z" style="stroke: rgb(51, 51, 51); fill: none; stroke-width: 1px;"/></g><g id="node-name-/net/dense_model/dense_model.0/MatMul" class="node graph-node" style="" transform="translate(52.31640625,769)"><g class="node-item node-item-type" transform="translate(0,0)"><path d="M5,0h65a5,5 0 0 1 5,5v16a0,0 0 0 1 0,0h-75a0,0 0 0 1 0,0v-16a5,5 0 0 1 5,-5z" style="stroke: rgb(0, 0, 0); fill: rgb(0, 0, 0); stroke-width: 0;"/><text x="6" y="15" style="font-family: -apple-system, BlinkMacSystemFont, &quot;Segoe WPC&quot;, &quot;Segoe UI&quot;, Ubuntu, &quot;Droid Sans&quot;, sans-serif, &quot;PingFang SC&quot;; font-size: 11px; text-rendering: geometricprecision; user-select: none; fill: rgb(255, 255, 255);">MatMul</text><title>/net/dense_model/dense_model.0/MatMul</title></g><g class="node-argument-list" transform="translate(0,21)"><path d="M0,0h75a0,0 0 0 1 0,0v14a5,5 0 0 1 -5,5h-65a5,5 0 0 1 -5,-5v-14a0,0 0 0 1 0,0z" style="stroke: rgb(0, 0, 0); fill: rgb(255, 255, 255); stroke-width: 0;"/><g class="node-argument"><rect rx="3" ry="3" x="3" y="3" width="69" height="13" style="fill: transparent;"/><text xml:space="preserve" x="6" y="13" style="font-family: -apple-system, BlinkMacSystemFont, &quot;Segoe WPC&quot;, &quot;Segoe UI&quot;, Ubuntu, &quot;Droid Sans&quot;, sans-serif, &quot;PingFang SC&quot;; font-size: 9px; font-weight: normal; text-rendering: geometricprecision; user-select: none;"><title>float32[512,2]</title><tspan style="font-weight: bold;">B</tspan><tspan>〈512×2〉</tspan></text></g><line class="node" x1="0" x2="75" y1="0" y2="0" style="stroke: rgb(51, 51, 51); fill: none; stroke-width: 1px;"/></g><path class="node node-border" d="M5,0h65a5,5 0 0 1 5,5v30a5,5 0 0 1 -5,5h-65a5,5 0 0 1 -5,-5v-30a5,5 0 0 1 5,-5z" style="stroke: rgb(51, 51, 51); fill: none; stroke-width: 1px;"/></g><g id="node-name-/net/dense_model/dense_model.0/Add" class="node graph-node" style="" transform="translate(52.31640625,829)"><g class="node-item node-item-type" transform="translate(0,0)"><path d="M5,0h65a5,5 0 0 1 5,5v16a0,0 0 0 1 0,0h-75a0,0 0 0 1 0,0v-16a5,5 0 0 1 5,-5z" style="stroke: rgb(0, 0, 0); fill: rgb(0, 0, 0); stroke-width: 0;"/><text x="6" y="15" style="font-family: -apple-system, BlinkMacSystemFont, &quot;Segoe WPC&quot;, &quot;Segoe UI&quot;, Ubuntu, &quot;Droid Sans&quot;, sans-serif, &quot;PingFang SC&quot;; font-size: 11px; text-rendering: geometricprecision; user-select: none; fill: rgb(255, 255, 255);">Add</text><title>/net/dense_model/dense_model.0/Add</title></g><g class="node-argument-list" transform="translate(0,21)"><path d="M0,0h75a0,0 0 0 1 0,0v14a5,5 0 0 1 -5,5h-65a5,5 0 0 1 -5,-5v-14a0,0 0 0 1 0,0z" style="stroke: rgb(0, 0, 0); fill: rgb(255, 255, 255); stroke-width: 0;"/><g class="node-argument"><rect rx="3" ry="3" x="3" y="3" width="69" height="13" style="fill: transparent;"/><text xml:space="preserve" x="6" y="13" style="font-family: -apple-system, BlinkMacSystemFont, &quot;Segoe WPC&quot;, &quot;Segoe UI&quot;, Ubuntu, &quot;Droid Sans&quot;, sans-serif, &quot;PingFang SC&quot;; font-size: 9px; font-weight: normal; text-rendering: geometricprecision; user-select: none;"><title>float32[2]</title><tspan style="font-weight: bold;">A</tspan><tspan>〈2〉</tspan></text></g><line class="node" x1="0" x2="75" y1="0" y2="0" style="stroke: rgb(51, 51, 51); fill: none; stroke-width: 1px;"/></g><path class="node node-border" d="M5,0h65a5,5 0 0 1 5,5v30a5,5 0 0 1 -5,5h-65a5,5 0 0 1 -5,-5v-30a5,5 0 0 1 5,-5z" style="stroke: rgb(51, 51, 51); fill: none; stroke-width: 1px;"/></g><g class="node" style="" transform="translate(75.70703125,911)"><g class="node-item graph-item-output" transform="translate(0,0)"><path d="M5,0h18.21875a5,5 0 0 1 5,5v11a5,5 0 0 1 -5,5h-18.21875a5,5 0 0 1 -5,-5v-11a5,5 0 0 1 5,-5z" style="stroke: rgb(0, 0, 0); fill: rgb(238, 238, 238); stroke-width: 0;"/><text x="6" y="15" style="font-family: -apple-system, BlinkMacSystemFont, &quot;Segoe WPC&quot;, &quot;Segoe UI&quot;, Ubuntu, &quot;Droid Sans&quot;, sans-serif, &quot;PingFang SC&quot;; font-size: 11px; text-rendering: geometricprecision; user-select: none;">49</text><title>float32[1,1000,2]</title></g><path class="node node-border" d="M5,0h18.21875a5,5 0 0 1 5,5v11a5,5 0 0 1 -5,5h-18.21875a5,5 0 0 1 -5,-5v-11a5,5 0 0 1 5,-5z" style="stroke: rgb(51, 51, 51); fill: none; stroke-width: 1px;"/></g></g></g></svg>